<svg id="Layer_1" data-name="Layer 1" xmlns="http://www.w3.org/2000/svg" viewBox="0 0 22 22"><path d="M21.42,3.79A5.52,5.52,0,0,0,18.21.58,8.1,8.1,0,0,0,15.54.07C14.37,0,14,0,11,0S7.63,0,6.46.07A8,8,0,0,0,3.79.58,5.52,5.52,0,0,0,.58,3.79,8.1,8.1,0,0,0,.07,6.46C0,7.63,0,8,0,11s0,3.37.07,4.54a8,8,0,0,0,.51,2.67,5.52,5.52,0,0,0,3.21,3.21,8.1,8.1,0,0,0,2.67.51C7.63,22,8,22,11,22s3.37,0,4.54-.07a8,8,0,0,0,2.67-.51,5.52,5.52,0,0,0,3.21-3.21,8.1,8.1,0,0,0,.51-2.67C22,14.37,22,14,22,11s0-3.37-.07-4.54A8,8,0,0,0,21.42,3.79ZM20,15.45a6.13,6.13,0,0,1-.38,2,3.34,3.34,0,0,1-.83,1.26,3.38,3.38,0,0,1-1.26.83,6.13,6.13,0,0,1-2,.38C14.27,20,13.93,20,11,20S7.7,20,6.55,20a6,6,0,0,1-2-.38,3.38,3.38,0,0,1-1.27-.83,3.59,3.59,0,0,1-.83-1.26,6.13,6.13,0,0,1-.38-2C2,14.28,2,13.93,2,11S2,7.71,2,6.55a6.13,6.13,0,0,1,.38-2,3.46,3.46,0,0,1,.83-1.26,3.42,3.42,0,0,1,1.27-.83,6.07,6.07,0,0,1,2-.38C7.71,2,8.06,2,11,2s3.29,0,4.45.07a6.07,6.07,0,0,1,2,.38,3.34,3.34,0,0,1,1.26.83,3.46,3.46,0,0,1,.83,1.26,6.13,6.13,0,0,1,.38,2C20,7.72,20,8.07,20,11S20,14.29,20,15.45Z" transform="translate(0 0)"/><path d="M11,5.35A5.65,5.65,0,1,0,16.64,11,5.65,5.65,0,0,0,11,5.35Zm0,9.32A3.67,3.67,0,1,1,14.66,11,3.67,3.67,0,0,1,11,14.67Z" transform="translate(0 0)"/><circle cx="16.87" cy="5.13" r="1.32"/></svg>